<svg width="100" height="115" viewBox="0 0 100 115" fill="none" xmlns="http://www.w3.org/2000/svg">
<g clip-path="url(#clip0_2456_5301)">
<path d="M9.11156 105.339C7.65829 105.339 6.49566 105.339 5.30398 105.339C1.81611 105.294 -0.000486335 103.441 -0.000486335 99.8845C-0.000486335 74.918 -0.000486335 49.9416 -0.000486335 24.9552C-0.0294983 24.0549 0.126342 23.1583 0.456876 22.3241C0.787409 21.4898 1.28521 20.7365 1.91784 20.1134C7.84721 14.066 13.7621 7.97883 19.6624 1.85179C20.2078 1.25549 20.8682 0.782708 21.6014 0.463642C22.3346 0.144577 23.1244 -0.0137636 23.9205 -0.00126704C39.238 -0.00126704 54.6427 -0.00126704 70.0039 -0.00126704C73.5644 -0.00126704 75.3229 1.88168 75.3519 5.60274V8.59154H79.1886C82.5602 8.59154 84.4059 10.4894 84.4059 13.9265C84.4059 21.4583 84.4059 28.9901 84.4059 36.5219V38.8532C85.5975 37.6277 86.455 36.7311 87.3124 35.8644C87.7793 35.3422 88.3465 34.9253 88.9781 34.6402C89.6098 34.355 90.2921 34.2078 90.9819 34.2078C91.6718 34.2078 92.3541 34.355 92.9857 34.6402C93.6174 34.9253 94.1846 35.3422 94.6515 35.8644C95.9303 37.1197 97.1656 38.4048 98.4009 39.705C98.9 40.1399 99.3009 40.6813 99.576 41.2916C99.851 41.902 99.9934 42.5666 99.9934 43.2392C99.9934 43.9119 99.851 44.5765 99.576 45.1868C99.3009 45.7972 98.9 46.3386 98.4009 46.7735C94.138 51.1969 89.8557 55.5954 85.5539 59.969C85.1772 60.3216 84.8794 60.754 84.6812 61.2365C84.4829 61.719 84.389 62.2401 84.4059 62.7636C84.4059 78.0065 84.4059 93.2344 84.4785 108.462C84.4785 112.856 82.1969 114.799 78.4329 114.769C57.3458 114.649 36.2878 114.769 15.1572 114.769C10.7102 114.769 9.11156 113.125 9.11156 108.552V105.339ZM72.4163 73.6279C71.7478 74.2555 71.3554 74.6142 70.9631 75.0027C67.9693 78.0812 64.9755 81.1746 61.9673 84.2381C61.4481 84.8321 60.8397 85.3366 60.1652 85.7325C56.314 87.5407 52.4338 89.2742 48.539 91.0675C47.9668 91.427 47.2942 91.5795 46.6281 91.501C45.962 91.4225 45.3404 91.1174 44.8622 90.6341C44.4279 90.1528 44.1598 89.5378 44.0994 88.8841C44.039 88.2305 44.1896 87.5745 44.5279 87.0177C46.1992 83.2667 47.7833 79.471 49.4691 75.735C49.8909 74.7643 50.4709 73.8748 51.1839 73.1048C57.8593 66.1808 64.5541 59.2916 71.2682 52.4373C71.644 52.0822 71.9391 51.6465 72.1325 51.1609C72.3259 50.6753 72.4129 50.1519 72.3873 49.6278C72.3873 35.1321 72.3873 20.6364 72.3873 6.15566C72.3873 3.43585 71.9367 2.95765 69.3644 2.95765H23.5862V18.7983C23.5862 22.4297 21.7115 24.3276 18.18 24.3276H4.63547C4.05416 24.3276 3.48738 24.3276 2.877 24.3276C2.877 24.8058 2.877 25.0748 2.877 25.3587C2.877 50.106 2.877 74.8483 2.877 99.5856C2.877 101.723 3.53098 102.335 5.69636 102.335H69.7568C71.9222 102.335 72.4454 101.782 72.4454 99.5109V73.6279H72.4163ZM12.0036 105.354V108.761C12.0036 111.347 12.4977 111.855 14.9101 111.855H78.709C81.0052 111.855 81.6156 111.212 81.6156 108.866C81.6156 94.5395 81.6156 80.2182 81.6156 65.9018C81.6156 65.4385 81.6156 64.9753 81.4848 64.1235C79.6246 66.0662 78.0986 67.7698 76.4564 69.3539C76.0711 69.7051 75.7687 70.142 75.5723 70.6314C75.3759 71.1208 75.2906 71.6499 75.3229 72.1783C75.3229 81.1447 75.3229 90.1111 75.3229 99.1672C75.3229 103.65 73.6952 105.384 69.2191 105.384H12.0036V105.354ZM59.7292 81.7723L91.7013 48.8955C89.6522 46.7884 87.5013 44.5618 85.5104 42.4846C74.8724 53.3937 64.1472 64.4224 53.5383 75.3614L59.7292 81.7723ZM75.4537 11.5355V48.3127C77.6045 46.0263 79.4357 44.1134 81.2668 42.1408C81.5295 41.7903 81.6679 41.3579 81.6592 40.9154C81.6592 31.8594 81.6592 22.8033 81.6592 13.7472C81.6872 13.4892 81.6643 13.228 81.5918 12.9793C81.5192 12.7306 81.3986 12.4996 81.2371 12.3C81.0756 12.1004 80.8765 11.9364 80.6519 11.8179C80.4272 11.6994 80.1816 11.6287 79.9298 11.6102C78.4765 11.4608 77.0232 11.5654 75.4537 11.5654V11.5355ZM5.15865 21.3238H18.0783C20.1274 21.3238 20.7378 20.6812 20.7378 18.5741C20.7378 14.5542 20.7378 10.5343 20.7378 6.51432C20.7107 6.16284 20.6622 5.81345 20.5925 5.46824L5.15865 21.3238ZM94.3753 46.6091C97.8196 43.3364 97.8196 43.3364 94.6079 40.0337L94.1428 39.5555C90.9747 36.2977 90.902 36.2977 87.8501 39.6302C87.8176 39.6861 87.7931 39.7465 87.7775 39.8096L94.3753 46.6091ZM51.5037 78.3352C50.0504 81.5183 48.7134 84.7611 47.1438 88.4374L56.9971 83.9542L51.5037 78.3352Z" fill="white"/>
<path d="M37.655 38.0463C29.7202 38.0463 21.7853 38.0463 13.8649 38.0463C12.9493 38.0463 11.8884 38.0463 11.8594 36.8657C11.8594 36.2979 12.4988 35.6104 13.0075 35.1621C13.2545 34.938 13.8504 35.1621 14.2863 35.1621H61.0383C61.5324 35.1621 62.1573 35.0276 62.4916 35.2667C62.9962 35.615 63.3503 36.1505 63.4798 36.7611C63.4798 37.1646 62.8694 37.7624 62.4044 37.9865C61.8746 38.1361 61.3205 38.1717 60.7767 38.0912L37.655 38.0463Z" fill="white"/>
<path d="M37.7837 49.1199H14.2842C13.79 49.1199 13.1797 49.2693 12.8309 49.0302C12.5756 48.8621 12.3554 48.6434 12.1832 48.3868C12.0111 48.1302 11.8903 47.8409 11.8281 47.5358C11.8281 47.1323 12.4094 46.5644 12.8745 46.2805C13.3395 45.9966 13.7319 46.2805 14.1679 46.2805C29.7761 46.2805 45.3891 46.2805 61.007 46.2805C61.4575 46.2805 61.9807 46.1311 62.315 46.2805C62.6492 46.4299 63.5067 47.1921 63.4631 47.5956C63.4195 47.9991 62.78 48.6865 62.2568 49.09C61.7337 49.4935 61.4139 49.09 60.9634 49.09L37.7837 49.1199Z" fill="white"/>
<path d="M26.1582 71.0279H13.9071C12.8317 71.0279 11.7708 70.9382 11.7853 69.5335C11.7998 68.1287 12.8026 68.0391 13.9071 68.0391H38.3076C39.354 68.0391 40.4003 68.1138 40.4149 69.5335C40.4294 70.9531 39.3394 71.0279 38.3076 71.0279H26.1582Z" fill="white"/>
<path d="M26.1582 60.2544H13.9362C12.8462 60.2544 11.7998 60.09 11.7853 58.76C11.7708 57.43 12.8026 57.2656 13.8926 57.2656C22.0309 57.2656 30.1644 57.2656 38.2931 57.2656C39.3394 57.2656 40.4003 57.3403 40.4149 58.76C40.4294 60.1797 39.3685 60.2544 38.3222 60.2544H26.1582Z" fill="white"/>
</g>
<defs>
<clipPath id="clip0_2456_5301">
<rect width="100" height="114.815" fill="white"/>
</clipPath>
</defs>
</svg>
