<?xml version="1.0" encoding="UTF-8"?>
<svg id="Capa_2" data-name="Capa 2" xmlns="http://www.w3.org/2000/svg" viewBox="0 0 213.43 55.45">
  <defs>
    <style>
      .cls-1 {
        fill: #c1181c;
      }

      .cls-2 {
        fill: #373739;
      }
    </style>
  </defs>
  <g id="Capa_1-2" data-name="Capa 1">
    <g>
      <path class="cls-2" d="m26.01,55.41h-10.69c0-.6-.03-1.18,0-1.76.09-1.46.16-2.92.31-4.37.69-6.57,2.53-12.76,6.27-18.3,1.94-2.88,4.3-5.38,7.05-7.52,2.48-1.94,5.16-3.55,8.08-4.78,3.42-1.44,6.96-2.47,10.61-3.12,2.38-.42,4.77-.7,7.19-.74.21,0,.42-.04.67-.06,0,.25,0,.48,0,.71,0,12.36,0,24.72.01,37.08,0,.85,0,1.71,0,2.56,0,.24-.06.34-.32.34-3.36,0-6.71-.01-10.07-.02-.1,0-.2-.01-.32-.02v-27c-.19.04-.33.05-.47.1-2.9.96-5.62,2.25-8.07,4.08-3.41,2.56-5.96,5.8-7.69,9.69-1.34,3.03-2.14,6.21-2.4,9.51-.09,1.19-.1,2.38-.15,3.62Z"/>
      <path class="cls-1" d="m55.52,5.52c0,1.7,0,3.4,0,5.09,0,.28-.08.37-.37.37-3.2.03-6.35.43-9.48,1.06-4.13.83-8.09,2.16-11.82,4.12-4.4,2.31-8.21,5.35-11.43,9.14-1.82,2.15-3.43,4.44-4.78,6.91-2.58,4.68-4.38,9.65-5.41,14.89-.42,2.13-.66,4.29-.96,6.44-.07.49-.07,1-.09,1.5-.01.29-.12.4-.44.4-3.38-.02-6.77-.02-10.15-.02-.6,0-.6.01-.58-.61.05-1.56.03-3.12.16-4.67.22-2.46.48-4.92.84-7.36.5-3.36,1.36-6.64,2.5-9.84,1.65-4.63,3.9-8.95,6.89-12.87,3.62-4.73,8.02-8.59,13.14-11.64,5.4-3.22,11.21-5.4,17.34-6.74,1.96-.43,3.94-.82,5.93-1.06,2.31-.29,4.64-.41,6.96-.59.43-.03.87-.02,1.3-.05.33-.02.44.09.44.43-.01,1.7,0,3.4,0,5.09,0,0,0,0,0,0Z"/>
      <g>
        <path class="cls-1" d="m70.23,27.12c0-2.91,1.97-5.83,5.4-5.83,2.48,0,3.44,1.03,4.36,2.23l-2.03,2.01c-.47-.63-1.07-1.17-2.19-1.17-1.64,0-2.46,1.53-2.46,2.76,0,1.49,1.18,2.75,2.46,2.75.95,0,1.71-.31,2.19-1.16l2.03,2.01c-.92,1.45-2.29,2.23-4.36,2.23-3.43,0-5.4-3.05-5.4-5.83Z"/>
        <path class="cls-1" d="m80.66,21.93c0-.79.63-1.45,1.38-1.45s1.39.66,1.39,1.45-.63,1.46-1.39,1.46-1.38-.71-1.38-1.46Zm.08,2.04h2.6v8.72h-2.6v-8.72Z"/>
        <path class="cls-1" d="m84.79,23.97h2.1v1c.26-.47.93-1,1.99-1,2.74,0,3.89,1.49,3.89,3.6v5.12h-2.49v-4.45c0-1.06-.57-1.64-1.5-1.64s-1.48.84-1.48,1.9v4.19h-2.49v-8.72Z"/>
        <path class="cls-1" d="m94.2,29.56v-2.99h-.76v-2.6h.76v-1.82h2.68v1.82h2.02v2.6h-2.02v2.14c0,1.48,1.06,1.35,2.14,1.17v2.83c-2.14.55-4.82-.21-4.82-3.15Z"/>
        <path class="cls-1" d="m100.38,21.45h2.63v3.05c.21-.31.89-.77,1.87-.77,2.78,0,3.81,1.56,3.81,4.37v4.59h-2.63v-4.37c0-1.19-.61-1.75-1.45-1.75-1.06,0-1.59.85-1.59,2.02v4.1h-2.63v-11.24Z"/>
        <path class="cls-1" d="m109.29,33.77c1.93.39,2.88-.85,2.2-2.27l-2.89-7.53h2.86l1.91,4.96,1.93-4.96h2.85l-3.35,8.72c-1.1,2.57-2.43,4.31-5.51,3.79v-2.71Z"/>
        <path class="cls-1" d="m117.55,28.42c0-2.81,2.16-4.67,4.38-4.67,2.34,0,4.39,1.86,4.39,4.67v4.34h-2.33v-.48c-.57.39-1.3.63-2.07.63-2.36,0-4.38-1.94-4.38-4.48Zm6.29,0c0-1-.76-2.07-1.91-2.07s-1.91,1.08-1.91,2.07.76,1.9,1.91,1.9,1.91-.87,1.91-1.9Z"/>
        <path class="cls-1" d="m131.3,21.55h2.4l3.27,5.65,3.27-5.65h2.4l.02,11.15h-2.66v-5.3l-3.03,4.98-3.03-4.98v5.3h-2.66l.02-11.15Z"/>
        <path class="cls-1" d="m143.51,28.33c0-2.76,2.14-4.56,4.28-4.56,2.28,0,4.27,1.8,4.27,4.56s-2,4.56-4.27,4.56-4.28-1.82-4.28-4.56Zm6.06,0c0-.96-.63-1.94-1.77-1.94s-1.79.96-1.79,1.94.67,1.93,1.79,1.93,1.77-.93,1.77-1.93Z"/>
        <path class="cls-1" d="m153.01,23.97h2.1v1c.26-.47.93-1,1.99-1,2.74,0,3.89,1.49,3.89,3.6v5.12h-2.49v-4.45c0-1.06-.57-1.64-1.5-1.64s-1.48.84-1.48,1.9v4.19h-2.49v-8.72Z"/>
        <path class="cls-1" d="m161.74,28.29c0-3.07,2.31-4.72,4.36-4.72,1.79,0,3.49,1.16,3.99,2.7l-2.22,1.3c-.26-.71-.95-1.29-1.7-1.29-.96,0-1.81.8-1.81,2.01s.81,2.01,1.81,2.01c.72,0,1.44-.48,1.7-1.25l2.22,1.29c-.5,1.61-2.2,2.71-3.99,2.71-2.37,0-4.36-2.17-4.36-4.76Z"/>
        <path class="cls-1" d="m170.4,28.42c0-2.81,2.16-4.67,4.38-4.67,2.34,0,4.39,1.86,4.39,4.67v4.34h-2.33v-.48c-.57.39-1.3.63-2.07.63-2.36,0-4.38-1.94-4.38-4.48Zm6.29,0c0-1-.76-2.07-1.91-2.07s-1.91,1.08-1.91,2.07.76,1.9,1.91,1.9,1.91-.87,1.91-1.9Z"/>
        <path class="cls-1" d="m179.95,33.77c1.93.39,2.88-.85,2.2-2.27l-2.89-7.53h2.86l1.91,4.96,1.93-4.96h2.85l-3.35,8.72c-1.1,2.57-2.43,4.31-5.51,3.79v-2.71Z"/>
        <path class="cls-1" d="m188.34,28.33c0-2.76,2.14-4.56,4.28-4.56,2.28,0,4.27,1.8,4.27,4.56s-2,4.56-4.27,4.56-4.28-1.82-4.28-4.56Zm6.06,0c0-.96-.63-1.94-1.77-1.94s-1.79.96-1.79,1.94.67,1.93,1.79,1.93,1.77-.93,1.77-1.93Z"/>
        <path class="cls-1" d="m205.43,29.76h-1.1v2.94h-2.78v-11.15h4.42c2.39,0,4.22,1.49,4.22,4.1,0,1.98-1.12,3.02-2,3.55.02,2.02.37,4.59,3.58,4.59v2.78c-4.15.16-6.32-3.34-6.33-6.81Zm.11-2.55c1.13,0,1.82-.72,1.82-1.56,0-.96-.7-1.54-1.85-1.54h-1.18v3.1h1.21Z"/>
        <path class="cls-1" d="m211.31,31.59c0-.63.47-1.12,1.06-1.12s1.07.5,1.07,1.12-.47,1.11-1.07,1.11-1.06-.5-1.06-1.11Z"/>
      </g>
      <g>
        <path class="cls-2" d="m73.79,43.31h-2.28l-.44,1.21h-.36l1.76-4.76h.36l1.76,4.76h-.36l-.44-1.21Zm-.12-.34l-1.01-2.77-1.01,2.77h2.02Z"/>
        <path class="cls-2" d="m81.7,42.57h-1.43v1.95h-.34v-4.76h1.79c.74,0,1.34.63,1.34,1.41,0,.65-.42,1.19-1,1.35l1.13,2h-.4l-1.09-1.95Zm-1.43-.34h1.45c.55,0,1-.48,1-1.06s-.45-1.07-1-1.07h-1.45v2.13Z"/>
        <path class="cls-2" d="m92.27,43.91l.53.55-.23.22-.54-.56c-.38.29-.86.47-1.38.47-1.3,0-2.34-1.1-2.34-2.46s1.04-2.46,2.34-2.46,2.34,1.1,2.34,2.46c0,.69-.27,1.32-.71,1.77Zm-.49-.03l-1.01-1.04.23-.22,1.02,1.05c.38-.39.61-.93.61-1.52,0-1.17-.89-2.11-2-2.11s-2,.94-2,2.11.89,2.11,2,2.11c.43,0,.82-.14,1.14-.37Z"/>
        <path class="cls-2" d="m98.46,42.93v-3.17h.34v3.17c0,.78.46,1.32,1.32,1.32s1.32-.54,1.32-1.32v-3.17h.34v3.17c0,1.01-.67,1.67-1.67,1.67s-1.66-.66-1.66-1.67Z"/>
        <path class="cls-2" d="m107.86,39.76v4.76h-.34v-4.76h.34Z"/>
        <path class="cls-2" d="m116.45,40.1h-1.43v4.42h-.35v-4.42h-1.43v-.34h3.2v.34Z"/>
        <path class="cls-2" d="m124.44,44.18v.34h-2.61v-4.76h2.58v.34h-2.24v1.85h2.08v.34h-2.08v1.89h2.27Z"/>
        <path class="cls-2" d="m129.66,42.14c0-1.36.98-2.46,2.36-2.46.84,0,1.57.45,1.95,1.14l-.3.18c-.3-.59-.93-.98-1.64-.98-1.19,0-2.02.94-2.02,2.11s.82,2.11,2.02,2.11c.72,0,1.36-.4,1.65-1l.3.18c-.37.7-1.11,1.16-1.96,1.16-1.38,0-2.36-1.1-2.36-2.46Z"/>
        <path class="cls-2" d="m142.18,40.1h-1.43v4.42h-.35v-4.42h-1.43v-.34h3.2v.34Z"/>
        <path class="cls-2" d="m149.86,43.31h-2.28l-.44,1.21h-.36l1.76-4.76h.36l1.76,4.76h-.36l-.44-1.21Zm-.12-.34l-1.01-2.77-1.01,2.77h2.02Z"/>
      </g>
    </g>
  </g>
</svg>